<mxfile host="app.diagrams.net" agent="Mozilla/5.0 (Windows NT 10.0; Win64; x64) AppleWebKit/537.36 (KHTML, like Gecko) Chrome/140.0.0.0 Safari/537.36" version="28.2.5">
  <diagram name="หน้า-1" id="CfA5JXhLaGenyVwxJFjS">
    <mxGraphModel dx="1665" dy="743" grid="1" gridSize="10" guides="1" tooltips="1" connect="1" arrows="1" fold="1" page="1" pageScale="1" pageWidth="827" pageHeight="1169" math="0" shadow="0">
      <root>
        <mxCell id="0" />
        <mxCell id="1" parent="0" />
        <mxCell id="eCjvsobd8aZ1oZOjXZic-35" value="" style="edgeStyle=orthogonalEdgeStyle;rounded=0;orthogonalLoop=1;jettySize=auto;html=1;" edge="1" parent="1" source="5" target="7">
          <mxGeometry relative="1" as="geometry" />
        </mxCell>
        <mxCell id="5" value="ประกาศตัวแปร&lt;br&gt;num1, num2, ptr1, ptr2" style="rounded=0;whiteSpace=wrap;html=1;" vertex="1" parent="1">
          <mxGeometry x="160" y="80" width="160" height="40" as="geometry" />
        </mxCell>
        <mxCell id="7" value="แสดงผล &quot;Enter num1 : &quot;" style="shape=parallelogram;perimeter=parallelogramPerimeter;whiteSpace=wrap;html=1;fixedSize=1;" vertex="1" parent="1">
          <mxGeometry x="160" y="160" width="160" height="40" as="geometry" />
        </mxCell>
        <mxCell id="9" value="รับค่า num1" style="shape=parallelogram;perimeter=parallelogramPerimeter;whiteSpace=wrap;html=1;fixedSize=1;" vertex="1" parent="1">
          <mxGeometry x="160" y="240" width="160" height="40" as="geometry" />
        </mxCell>
        <mxCell id="10" value="" style="endArrow=classic;html=1;rounded=0;" edge="1" parent="1" source="9" target="11">
          <mxGeometry width="50" height="50" relative="1" as="geometry">
            <mxPoint x="230" y="490" as="sourcePoint" />
            <mxPoint x="280" y="440" as="targetPoint" />
          </mxGeometry>
        </mxCell>
        <mxCell id="11" value="แสดงผล &quot;Enter num2 : &quot;" style="shape=parallelogram;perimeter=parallelogramPerimeter;whiteSpace=wrap;html=1;fixedSize=1;" vertex="1" parent="1">
          <mxGeometry x="160" y="320" width="160" height="40" as="geometry" />
        </mxCell>
        <mxCell id="12" value="" style="endArrow=classic;html=1;rounded=0;" edge="1" parent="1" source="11" target="13">
          <mxGeometry width="50" height="50" relative="1" as="geometry">
            <mxPoint x="230" y="590" as="sourcePoint" />
            <mxPoint x="280" y="540" as="targetPoint" />
          </mxGeometry>
        </mxCell>
        <mxCell id="13" value="รับค่า num2" style="shape=parallelogram;perimeter=parallelogramPerimeter;whiteSpace=wrap;html=1;fixedSize=1;" vertex="1" parent="1">
          <mxGeometry x="160" y="400" width="160" height="40" as="geometry" />
        </mxCell>
        <mxCell id="14" value="" style="endArrow=classic;html=1;rounded=0;" edge="1" parent="1" source="13" target="15">
          <mxGeometry width="50" height="50" relative="1" as="geometry">
            <mxPoint x="230" y="690" as="sourcePoint" />
            <mxPoint x="280" y="640" as="targetPoint" />
          </mxGeometry>
        </mxCell>
        <mxCell id="15" value="แสดงผลค่า num1 และ num2&lt;br&gt;ก่อนสลับ" style="shape=parallelogram;perimeter=parallelogramPerimeter;whiteSpace=wrap;html=1;fixedSize=1;" vertex="1" parent="1">
          <mxGeometry x="120" y="480" width="240" height="40" as="geometry" />
        </mxCell>
        <mxCell id="16" value="" style="endArrow=classic;html=1;rounded=0;" edge="1" parent="1" source="15" target="17">
          <mxGeometry width="50" height="50" relative="1" as="geometry">
            <mxPoint x="230" y="790" as="sourcePoint" />
            <mxPoint x="280" y="740" as="targetPoint" />
          </mxGeometry>
        </mxCell>
        <mxCell id="17" value="กำหนดให้ ptr1 ชี้ไปที่ num1&lt;br&gt;และ ptr2 ชี้ไปที่ num2" style="whiteSpace=wrap;html=1;rounded=0;" vertex="1" parent="1">
          <mxGeometry x="120" y="560" width="240" height="40" as="geometry" />
        </mxCell>
        <mxCell id="18" value="" style="endArrow=classic;html=1;rounded=0;" edge="1" parent="1" source="17" target="19">
          <mxGeometry width="50" height="50" relative="1" as="geometry">
            <mxPoint x="230" y="890" as="sourcePoint" />
            <mxPoint x="280" y="840" as="targetPoint" />
          </mxGeometry>
        </mxCell>
        <mxCell id="19" value="เรียกใช้ฟังก์ชัน swapNumbers&lt;br&gt;โดยส่งค่า ptr1 และ ptr2" style="shape=process;whiteSpace=wrap;html=1;backgroundOutline=1;" vertex="1" parent="1">
          <mxGeometry x="122.5" y="640" width="235" height="40" as="geometry" />
        </mxCell>
        <mxCell id="20" value="" style="endArrow=classic;html=1;rounded=0;" edge="1" parent="1" source="19" target="21">
          <mxGeometry width="50" height="50" relative="1" as="geometry">
            <mxPoint x="230" y="990" as="sourcePoint" />
            <mxPoint x="280" y="940" as="targetPoint" />
          </mxGeometry>
        </mxCell>
        <mxCell id="eCjvsobd8aZ1oZOjXZic-37" value="" style="edgeStyle=orthogonalEdgeStyle;rounded=0;orthogonalLoop=1;jettySize=auto;html=1;" edge="1" parent="1" source="21" target="eCjvsobd8aZ1oZOjXZic-36">
          <mxGeometry relative="1" as="geometry" />
        </mxCell>
        <mxCell id="21" value="แสดงผลค่า num1 และ num2&lt;br&gt;หลังสลับ" style="shape=parallelogram;perimeter=parallelogramPerimeter;whiteSpace=wrap;html=1;fixedSize=1;" vertex="1" parent="1">
          <mxGeometry x="120" y="720" width="240" height="40" as="geometry" />
        </mxCell>
        <mxCell id="eCjvsobd8aZ1oZOjXZic-38" value="" style="edgeStyle=orthogonalEdgeStyle;rounded=0;orthogonalLoop=1;jettySize=auto;html=1;" edge="1" parent="1" source="25" target="27">
          <mxGeometry relative="1" as="geometry" />
        </mxCell>
        <mxCell id="25" value="Start" style="ellipse;whiteSpace=wrap;html=1;" vertex="1" parent="1">
          <mxGeometry x="540" width="120" height="40" as="geometry" />
        </mxCell>
        <mxCell id="27" value="a = a + b" style="whiteSpace=wrap;html=1;rounded=0;" vertex="1" parent="1">
          <mxGeometry x="540" y="80" width="120" height="40" as="geometry" />
        </mxCell>
        <mxCell id="28" value="" style="endArrow=classic;html=1;rounded=0;" edge="1" parent="1" source="27" target="29">
          <mxGeometry width="50" height="50" relative="1" as="geometry">
            <mxPoint x="600" y="290" as="sourcePoint" />
            <mxPoint x="650" y="240" as="targetPoint" />
          </mxGeometry>
        </mxCell>
        <mxCell id="29" value="b = a - b" style="whiteSpace=wrap;html=1;rounded=0;" vertex="1" parent="1">
          <mxGeometry x="540" y="160" width="120" height="40" as="geometry" />
        </mxCell>
        <mxCell id="30" value="" style="endArrow=classic;html=1;rounded=0;" edge="1" parent="1" source="29" target="31">
          <mxGeometry width="50" height="50" relative="1" as="geometry">
            <mxPoint x="600" y="390" as="sourcePoint" />
            <mxPoint x="650" y="340" as="targetPoint" />
          </mxGeometry>
        </mxCell>
        <mxCell id="eCjvsobd8aZ1oZOjXZic-40" value="" style="edgeStyle=orthogonalEdgeStyle;rounded=0;orthogonalLoop=1;jettySize=auto;html=1;" edge="1" parent="1" source="31" target="eCjvsobd8aZ1oZOjXZic-39">
          <mxGeometry relative="1" as="geometry" />
        </mxCell>
        <mxCell id="31" value="a = a - b" style="whiteSpace=wrap;html=1;rounded=0;" vertex="1" parent="1">
          <mxGeometry x="540" y="240" width="120" height="40" as="geometry" />
        </mxCell>
        <mxCell id="eCjvsobd8aZ1oZOjXZic-34" value="" style="edgeStyle=orthogonalEdgeStyle;rounded=0;orthogonalLoop=1;jettySize=auto;html=1;" edge="1" parent="1" source="eCjvsobd8aZ1oZOjXZic-33" target="5">
          <mxGeometry relative="1" as="geometry" />
        </mxCell>
        <mxCell id="eCjvsobd8aZ1oZOjXZic-33" value="Start" style="ellipse;whiteSpace=wrap;html=1;" vertex="1" parent="1">
          <mxGeometry x="180" width="120" height="40" as="geometry" />
        </mxCell>
        <mxCell id="eCjvsobd8aZ1oZOjXZic-36" value="Stop" style="ellipse;whiteSpace=wrap;html=1;" vertex="1" parent="1">
          <mxGeometry x="180" y="800" width="120" height="40" as="geometry" />
        </mxCell>
        <mxCell id="eCjvsobd8aZ1oZOjXZic-39" value="Stop" style="ellipse;whiteSpace=wrap;html=1;" vertex="1" parent="1">
          <mxGeometry x="540" y="320" width="120" height="40" as="geometry" />
        </mxCell>
      </root>
    </mxGraphModel>
  </diagram>
</mxfile>
